<svg xmlns="http://www.w3.org/2000/svg" xmlns:xlink="http://www.w3.org/1999/xlink" preserveAspectRatio="xMidYMid" width="35" height="35" viewBox="0 0 35 35">
  <defs>
    <style>
      .cls-1 {
        fill: #fff;
        fill-rule: evenodd;
      }
    </style>
  </defs>
  <path d="M35.000,17.502 C35.000,7.858 27.142,-0.000 17.498,-0.000 C7.854,-0.000 -0.000,7.858 -0.000,17.502 C-0.000,22.814 2.410,27.592 6.159,30.804 C6.204,30.850 6.250,30.895 6.337,30.937 C9.371,33.483 13.257,35.000 17.543,35.000 C21.739,35.000 25.625,33.483 28.659,31.027 C28.836,30.982 28.973,30.850 29.060,30.713 C32.681,27.456 35.000,22.768 35.000,17.502 ZM1.608,17.502 C1.608,8.751 8.751,1.608 17.502,1.608 C26.253,1.608 33.396,8.751 33.396,17.502 C33.396,21.789 31.701,25.670 28.931,28.531 C28.485,26.431 27.146,22.859 23.037,20.540 C23.975,19.379 24.508,17.862 24.508,16.254 C24.508,12.413 21.383,9.288 17.543,9.288 C13.703,9.288 10.578,12.413 10.578,16.254 C10.578,17.862 11.157,19.333 12.049,20.540 C7.903,22.859 6.564,26.431 6.163,28.531 C3.348,25.716 1.608,21.789 1.608,17.502 ZM12.145,16.295 C12.145,13.348 14.554,10.938 17.502,10.938 C20.449,10.938 22.859,13.348 22.859,16.295 C22.859,19.242 20.449,21.652 17.502,21.652 C14.554,21.652 12.145,19.242 12.145,16.295 ZM7.589,29.911 C7.680,28.618 8.391,24.240 13.215,21.785 C14.422,22.723 15.894,23.256 17.502,23.256 C19.110,23.256 20.627,22.677 21.834,21.739 C26.612,24.195 27.369,28.481 27.505,29.866 C24.781,32.053 21.301,33.392 17.551,33.392 C13.753,33.396 10.313,32.102 7.589,29.911 Z" class="cls-1"/>
</svg>
