<svg xmlns="http://www.w3.org/2000/svg" xmlns:xlink="http://www.w3.org/1999/xlink" preserveAspectRatio="xMidYMid" width="16" height="16" viewBox="0 0 16 16">
  <defs>
    <style>
      .cls-1 {
        fill: #fff;
        stroke: #fff;
        stroke-linejoin: round;
        stroke-width: 1px;
        fill-rule: evenodd;
      }
    </style>
  </defs>
  <path d="M9.754,9.375 C10.345,8.752 10.715,7.918 10.715,7.000 C10.715,5.073 9.102,3.500 7.115,3.500 C5.128,3.500 3.515,5.073 3.515,7.000 C3.515,8.926 5.128,10.499 7.115,10.499 C7.924,10.499 8.668,10.241 9.270,9.803 L11.947,12.405 C12.012,12.468 12.094,12.500 12.175,12.500 C12.256,12.500 12.343,12.468 12.403,12.405 C12.528,12.284 12.528,12.083 12.403,11.956 L9.754,9.375 ZM4.167,7.000 C4.167,5.421 5.486,4.133 7.115,4.133 C8.738,4.133 10.063,5.416 10.063,7.000 C10.063,8.583 8.744,9.866 7.115,9.866 C5.486,9.866 4.167,8.578 4.167,7.000 Z" class="cls-1"/>
</svg>
