<svg xmlns="http://www.w3.org/2000/svg" xmlns:xlink="http://www.w3.org/1999/xlink" preserveAspectRatio="xMidYMid" width="28.32" height="27" viewBox="0 0 28.32 27">
  <defs>
    <style>
      .cls-1 {
        fill: #fff;
        fill-rule: evenodd;
      }
    </style>
  </defs>
  <path d="M28.144,5.146 C27.982,4.911 27.721,4.765 27.438,4.753 L9.888,3.986 C9.384,3.963 8.963,4.357 8.942,4.866 C8.920,5.374 9.308,5.803 9.810,5.825 L26.172,6.541 L22.955,16.721 L8.638,16.721 L6.051,2.437 C5.995,2.124 5.783,1.863 5.490,1.747 L1.254,0.059 C0.787,-0.126 0.260,0.106 0.077,0.579 C-0.106,1.052 0.123,1.587 0.590,1.773 L4.357,3.274 L6.989,17.808 C7.068,18.245 7.444,18.562 7.882,18.562 L8.318,18.562 L7.321,21.371 C7.238,21.606 7.272,21.868 7.414,22.072 C7.556,22.277 7.787,22.398 8.033,22.398 L8.732,22.398 C8.299,22.887 8.033,23.531 8.033,24.239 C8.033,25.762 9.255,27.001 10.756,27.001 C12.258,27.001 13.480,25.762 13.480,24.239 C13.480,23.531 13.214,22.887 12.780,22.398 L18.718,22.398 C18.285,22.887 18.019,23.531 18.019,24.239 C18.019,25.762 19.240,27.001 20.742,27.001 C22.244,27.001 23.465,25.762 23.465,24.239 C23.465,23.531 23.200,22.887 22.766,22.398 L23.617,22.398 C24.035,22.398 24.373,22.055 24.373,21.631 C24.373,21.207 24.035,20.864 23.617,20.864 L9.109,20.864 L9.926,18.562 L23.617,18.562 C24.012,18.562 24.361,18.303 24.481,17.922 L28.263,5.953 C28.350,5.680 28.306,5.382 28.144,5.146 ZM10.756,25.467 C10.089,25.467 9.546,24.917 9.546,24.240 C9.546,23.563 10.089,23.012 10.756,23.012 C11.424,23.012 11.967,23.563 11.967,24.240 C11.967,24.917 11.424,25.467 10.756,25.467 ZM20.742,25.467 C20.075,25.467 19.532,24.917 19.532,24.240 C19.532,23.563 20.075,23.012 20.742,23.012 C21.410,23.012 21.952,23.563 21.952,24.240 C21.952,24.917 21.410,25.467 20.742,25.467 Z" class="cls-1"/>
</svg>
