<svg xmlns="http://www.w3.org/2000/svg" xmlns:xlink="http://www.w3.org/1999/xlink" preserveAspectRatio="xMidYMid" width="32" height="21" viewBox="0 0 32 21">
  <defs>
    <style>
      .cls-1 {
        fill: #fff;
        filter: url(#drop-shadow-1);
        fill-rule: evenodd;
      }
    </style>

    <filter id="drop-shadow-1" filterUnits="userSpaceOnUse">
      <feOffset dy="-1" in="SourceAlpha"/>
      <feGaussianBlur result="dropBlur"/>
      <feFlood flood-opacity="0.3"/>
      <feComposite operator="in" in2="dropBlur" result="dropShadowComp"/>
      <feComposite in="SourceGraphic" result="shadowed"/>
    </filter>
  </defs>
  <path d="M31.262,20.500 L23.431,20.500 C23.024,20.500 22.694,20.171 22.694,19.765 L22.694,1.234 C22.694,0.829 23.024,0.500 23.431,0.500 L31.262,0.500 C31.669,0.500 32.000,0.829 32.000,1.234 L32.000,19.765 C32.000,20.171 31.669,20.500 31.262,20.500 ZM27.346,19.145 C27.804,19.145 28.174,18.776 28.174,18.321 C28.174,17.865 27.804,17.497 27.346,17.497 C26.889,17.497 26.519,17.865 26.519,18.321 C26.519,18.777 26.889,19.145 27.346,19.145 ZM27.346,15.708 C27.977,15.708 28.488,15.199 28.488,14.571 C28.488,13.942 27.977,13.433 27.346,13.433 C26.716,13.433 26.205,13.942 26.205,14.571 C26.205,15.199 26.716,15.708 27.346,15.708 ZM29.908,1.739 L24.786,1.739 C24.487,1.739 24.245,1.981 24.245,2.279 C24.245,2.577 24.487,2.818 24.786,2.818 L29.908,2.818 C30.208,2.818 30.450,2.577 30.450,2.279 C30.450,1.981 30.208,1.739 29.908,1.739 ZM30.684,5.801 C30.684,5.500 30.439,5.256 30.137,5.256 L24.557,5.256 C24.255,5.256 24.010,5.500 24.010,5.801 L24.010,7.478 C24.010,7.779 24.255,8.023 24.557,8.023 L30.137,8.023 C30.439,8.023 30.684,7.779 30.684,7.478 L30.684,5.801 ZM19.746,15.440 L13.313,15.440 L13.313,17.721 L16.116,17.721 C16.547,17.721 16.897,18.069 16.897,18.498 L16.897,19.621 C16.897,20.051 16.547,20.399 16.116,20.399 L5.222,20.399 C4.791,20.399 4.441,20.051 4.441,19.621 L4.441,18.498 C4.441,18.069 4.791,17.721 5.222,17.721 L8.026,17.721 L8.026,15.440 L1.592,15.440 C0.715,15.440 -0.000,14.728 -0.000,13.854 L-0.000,2.892 C-0.000,2.017 0.714,1.306 1.592,1.306 L19.746,1.306 C20.624,1.306 21.338,2.017 21.338,2.892 L21.338,13.854 C21.338,14.728 20.624,15.440 19.746,15.440 ZM19.715,2.892 L1.592,2.923 L1.623,13.854 L19.715,13.823 L19.715,2.892 Z" class="cls-1"/>
</svg>
