<svg xmlns="http://www.w3.org/2000/svg" xmlns:xlink="http://www.w3.org/1999/xlink" preserveAspectRatio="xMidYMid" width="22" height="21" viewBox="0 0 22 21">
  <defs>
    <style>
      .cls-1 {
        fill: #fff;
        filter: url(#drop-shadow-1);
        fill-rule: evenodd;
      }
    </style>

    <filter id="drop-shadow-1" filterUnits="userSpaceOnUse">
      <feOffset dy="-1" in="SourceAlpha"/>
      <feGaussianBlur result="dropBlur"/>
      <feFlood flood-opacity="0.3"/>
      <feComposite operator="in" in2="dropBlur" result="dropShadowComp"/>
      <feComposite in="SourceGraphic" result="shadowed"/>
    </filter>
  </defs>
  <path d="M20.472,20.500 L1.528,20.500 C0.684,20.500 -0.000,19.845 -0.000,19.037 L-0.000,1.963 C-0.000,1.155 0.684,0.500 1.528,0.500 L20.472,0.500 C21.316,0.500 22.000,1.155 22.000,1.963 L22.000,19.037 C22.000,19.845 21.316,20.500 20.472,20.500 ZM4.078,2.720 C3.489,2.720 3.013,3.177 3.013,3.740 C3.013,4.303 3.489,4.760 4.078,4.760 C4.666,4.760 5.143,4.303 5.143,3.740 C5.143,3.177 4.666,2.720 4.078,2.720 ZM7.628,2.720 C7.039,2.720 6.563,3.177 6.563,3.740 C6.563,4.303 7.039,4.760 7.628,4.760 C8.216,4.760 8.693,4.303 8.693,3.740 C8.693,3.177 8.216,2.720 7.628,2.720 ZM11.178,2.720 C10.589,2.720 10.113,3.177 10.113,3.740 C10.113,4.303 10.589,4.760 11.178,4.760 C11.766,4.760 12.242,4.303 12.242,3.740 C12.242,3.177 11.766,2.720 11.178,2.720 ZM17.922,2.720 C17.334,2.720 16.857,3.177 16.857,3.740 C16.857,4.303 17.334,4.760 17.922,4.760 C18.510,4.760 18.987,4.303 18.987,3.740 C18.987,3.177 18.510,2.720 17.922,2.720 ZM19.165,7.026 L2.835,7.026 L2.835,17.847 L19.165,17.847 L19.165,7.026 ZM12.155,9.563 C12.238,9.483 12.373,9.483 12.456,9.563 C12.539,9.643 12.539,9.772 12.456,9.851 L7.235,14.851 C7.193,14.891 7.139,14.911 7.084,14.911 C7.030,14.911 6.975,14.891 6.933,14.851 C6.850,14.772 6.850,14.642 6.933,14.563 L12.155,9.563 ZM14.765,9.563 C14.848,9.483 14.983,9.483 15.066,9.563 C15.150,9.643 15.150,9.772 15.066,9.851 L9.845,14.851 C9.804,14.891 9.749,14.911 9.695,14.911 C9.640,14.911 9.586,14.891 9.544,14.851 C9.461,14.771 9.461,14.642 9.544,14.563 L14.765,9.563 Z" class="cls-1"/>
</svg>
