<svg xmlns="http://www.w3.org/2000/svg" xmlns:xlink="http://www.w3.org/1999/xlink" preserveAspectRatio="xMidYMid" width="25" height="21" viewBox="0 0 25 21">
  <defs>
    <style>
      .cls-1 {
        fill: #fff;
        filter: url(#drop-shadow-1);
        fill-rule: evenodd;
      }
    </style>

    <filter id="drop-shadow-1" filterUnits="userSpaceOnUse">
      <feOffset dy="-1" in="SourceAlpha"/>
      <feGaussianBlur result="dropBlur"/>
      <feFlood flood-opacity="0.3"/>
      <feComposite operator="in" in2="dropBlur" result="dropShadowComp"/>
      <feComposite in="SourceGraphic" result="shadowed"/>
    </filter>
  </defs>
  <path d="M24.915,16.840 L23.963,12.679 C24.279,12.006 24.439,11.288 24.439,10.543 C24.439,8.861 23.594,7.294 22.198,6.323 L22.198,5.861 C22.198,4.964 21.442,4.234 20.512,4.234 L18.171,4.234 C17.429,4.234 16.798,4.698 16.573,5.342 L12.994,5.342 L12.994,1.044 C12.994,0.744 12.741,0.500 12.429,0.500 C12.118,0.500 11.865,0.744 11.865,1.044 L11.865,5.342 L8.286,5.342 C8.061,4.699 7.429,4.234 6.688,4.234 L4.347,4.234 C3.417,4.234 2.660,4.964 2.660,5.861 L2.660,6.062 C1.014,6.996 0.006,8.684 0.006,10.543 C0.006,11.491 0.270,12.410 0.772,13.217 L0.086,16.219 C-0.337,18.071 0.842,19.945 2.714,20.396 C3.002,20.465 3.297,20.500 3.591,20.500 C5.265,20.500 6.742,19.354 7.103,17.774 L7.679,15.256 C8.493,14.890 9.193,14.336 9.730,13.636 L14.714,13.636 C15.349,14.463 16.222,15.091 17.221,15.438 L17.755,17.774 C18.116,19.354 19.594,20.500 21.268,20.500 L21.268,20.500 C21.508,20.500 21.749,20.477 21.986,20.430 C22.961,20.415 23.803,20.039 24.363,19.367 C24.934,18.681 25.130,17.783 24.915,16.840 ZM8.239,10.990 C8.239,11.290 7.986,11.534 7.674,11.534 L6.388,11.534 L6.388,12.775 C6.388,13.076 6.136,13.320 5.824,13.320 L4.742,13.320 C4.430,13.320 4.178,13.076 4.178,12.775 L4.178,11.534 L2.891,11.534 C2.580,11.534 2.327,11.290 2.327,10.990 L2.327,9.946 C2.327,9.645 2.580,9.401 2.891,9.401 L4.178,9.401 L4.178,8.160 C4.178,7.860 4.430,7.616 4.742,7.616 L5.824,7.616 C6.136,7.616 6.388,7.860 6.388,8.160 L6.388,9.401 L7.675,9.401 C7.986,9.401 8.239,9.645 8.239,9.946 L8.239,10.990 L8.239,10.990 ZM16.987,11.400 C16.406,11.400 15.934,10.944 15.934,10.384 C15.934,9.824 16.406,9.369 16.987,9.369 C17.567,9.369 18.039,9.824 18.039,10.384 C18.039,10.944 17.567,11.400 16.987,11.400 ZM19.151,13.489 C18.571,13.489 18.099,13.033 18.099,12.473 C18.099,11.913 18.571,11.457 19.151,11.457 C19.732,11.457 20.204,11.913 20.204,12.473 C20.204,13.033 19.732,13.489 19.151,13.489 ZM19.151,9.311 C18.571,9.311 18.099,8.856 18.099,8.296 C18.099,7.736 18.571,7.280 19.151,7.280 C19.732,7.280 20.204,7.736 20.204,8.296 C20.204,8.856 19.732,9.311 19.151,9.311 ZM21.316,11.400 C20.736,11.400 20.264,10.944 20.264,10.384 C20.264,9.824 20.736,9.369 21.316,9.369 C21.897,9.369 22.369,9.824 22.369,10.384 C22.369,10.944 21.897,11.400 21.316,11.400 Z" class="cls-1"/>
</svg>
