<svg xmlns="http://www.w3.org/2000/svg" xmlns:xlink="http://www.w3.org/1999/xlink" preserveAspectRatio="xMidYMid" width="27" height="21" viewBox="0 0 27 21">
  <defs>
    <style>
      .cls-1 {
        fill: #fff;
        filter: url(#drop-shadow-1);
        fill-rule: evenodd;
      }
    </style>

    <filter id="drop-shadow-1" filterUnits="userSpaceOnUse">
      <feOffset dy="-1" in="SourceAlpha"/>
      <feGaussianBlur result="dropBlur"/>
      <feFlood flood-opacity="0.3"/>
      <feComposite operator="in" in2="dropBlur" result="dropShadowComp"/>
      <feComposite in="SourceGraphic" result="shadowed"/>
    </filter>
  </defs>
  <path d="M23.428,20.493 L3.571,20.493 C1.599,20.493 -0.004,18.859 -0.004,16.852 L-0.004,6.220 C-0.004,4.321 1.431,2.756 3.256,2.593 C3.415,1.899 3.860,1.426 4.391,1.426 L6.967,1.426 C7.495,1.426 7.937,1.894 8.099,2.579 L11.743,2.579 L13.508,0.504 L19.543,0.504 L21.717,2.579 L23.428,2.579 C25.400,2.579 27.003,4.213 27.003,6.220 L27.003,16.852 C27.003,18.859 25.400,20.493 23.428,20.493 ZM3.230,8.642 C3.230,8.262 2.926,7.954 2.553,7.954 C2.180,7.954 1.878,8.262 1.878,8.642 L1.878,15.900 C1.878,16.280 2.180,16.587 2.553,16.587 C2.926,16.587 3.230,16.280 3.230,15.900 L3.230,8.642 ZM7.294,4.840 C7.294,4.439 6.974,4.114 6.581,4.114 L4.749,4.114 C4.356,4.114 4.036,4.439 4.036,4.840 L4.036,5.267 C4.036,5.667 4.356,5.993 4.749,5.993 L6.581,5.993 C6.974,5.993 7.294,5.667 7.294,5.267 L7.294,4.840 ZM16.868,5.814 C13.718,5.814 11.155,8.424 11.155,11.632 C11.155,14.840 13.718,17.450 16.868,17.450 C20.017,17.450 22.579,14.840 22.579,11.632 C22.579,8.424 20.017,5.814 16.868,5.814 ZM16.868,15.711 C14.660,15.711 12.863,13.880 12.863,11.632 C12.863,9.383 14.660,7.554 16.868,7.554 C19.075,7.554 20.871,9.383 20.871,11.632 C20.871,13.880 19.075,15.711 16.868,15.711 Z" class="cls-1"/>
</svg>
